<svg xmlns="http://www.w3.org/2000/svg" width="358" height="237" viewBox="0 0 358 237">
    <g fill="#FFF" fill-rule="evenodd">
        <path d="M3.626 38.037c0-6.504 5.292-11.796 11.796-11.796 6.503 0 11.796 5.292 11.796 11.796s-5.293 11.796-11.796 11.796c-6.505 0-11.796-5.292-11.796-11.796M343.645.943H45.16v3h298.486c5.79 0 10.5 4.71 10.5 10.5v208.512c0 5.79-4.71 10.5-10.5 10.5H27.252c-5.79 0-10.5-4.71-10.5-10.5V52.765a14.676 14.676 0 0 0 4.659-1.21v52.766h2.966V49.787c3.542-2.706 5.84-6.96 5.84-11.75 0-8.16-6.637-14.796-14.795-14.796C7.262 23.24.626 29.878.626 38.037c0 4.626 2.137 8.76 5.472 11.475v103.582h2.967V51.377a14.66 14.66 0 0 0 4.687 1.355v170.223c0 7.444 6.056 13.5 13.5 13.5h316.394c7.443 0 13.5-6.056 13.5-13.5V14.443c0-7.444-6.057-13.5-13.5-13.5"/>
        <path d="M13.898 39.615h3.046V30.74h-3.046zM15.42 45.334a1.843 1.843 0 1 0 .002-3.687 1.843 1.843 0 0 0-.002 3.687"/>
    </g>
</svg>
